<?xml version="1.0" encoding="UTF-8" standalone="no"?>
<!-- Created with Inkscape (http://www.inkscape.org/) -->

<svg
   xmlns:dc="http://purl.org/dc/elements/1.1/"
   xmlns:cc="http://creativecommons.org/ns#"
   xmlns:rdf="http://www.w3.org/1999/02/22-rdf-syntax-ns#"
   xmlns:svg="http://www.w3.org/2000/svg"
   xmlns="http://www.w3.org/2000/svg"
   xmlns:sodipodi="http://sodipodi.sourceforge.net/DTD/sodipodi-0.dtd"
   xmlns:inkscape="http://www.inkscape.org/namespaces/inkscape"
   width="17.703876mm"
   height="16.860703mm"
   viewBox="0 0 17.703876 16.860703"
   version="1.1"
   id="svg5919"
   inkscape:version="0.92.2 5c3e80d, 2017-08-06"
   sodipodi:docname="logo_sm.svg">
  <defs
     id="defs5913" />
  <sodipodi:namedview
     id="base"
     pagecolor="#ffffff"
     bordercolor="#666666"
     borderopacity="1.0"
     inkscape:pageopacity="0.0"
     inkscape:pageshadow="2"
     inkscape:zoom="10.074461"
     inkscape:cx="33.456158"
     inkscape:cy="31.862742"
     inkscape:document-units="mm"
     inkscape:current-layer="layer1"
     showgrid="false"
     fit-margin-top="0"
     fit-margin-left="0"
     fit-margin-right="0"
     fit-margin-bottom="0"
     inkscape:window-width="1440"
     inkscape:window-height="855"
     inkscape:window-x="0"
     inkscape:window-y="1"
     inkscape:window-maximized="1" />
  <metadata
     id="metadata5916">
    <rdf:RDF>
      <cc:Work
         rdf:about="">
        <dc:format>image/svg+xml</dc:format>
        <dc:type
           rdf:resource="http://purl.org/dc/dcmitype/StillImage" />
        <dc:title></dc:title>
      </cc:Work>
    </rdf:RDF>
  </metadata>
  <g
     inkscape:label="Layer 1"
     inkscape:groupmode="layer"
     id="layer1"
     transform="translate(-204.32663,-28.522029)">
    <g
       transform="translate(77.012594,-7.9894761)"
       style="display:inline"
       id="logo 6">
      <path
         style="fill:#ffff00;fill-opacity:1;fill-rule:nonzero;stroke:none;stroke-width:4.14614153;stroke-linecap:round;stroke-linejoin:round;stroke-miterlimit:4;stroke-dasharray:none;stroke-opacity:1"
         d="m 298.14062,143.49023 c -2.17408,0 -10.9794,16.34125 -12.73828,17.61915 -1.75887,1.27789 -20.02153,4.60224 -20.69336,6.66992 -0.67182,2.06767 12.14849,15.49091 12.82032,17.55859 0.67183,2.06768 -1.80966,20.46234 -0.0508,21.74023 1.75887,1.2779 18.48802,-6.76562 20.6621,-6.76562 2.17409,0 18.90129,8.04352 20.66016,6.76562 1.75887,-1.27789 -0.72261,-19.67255 -0.0508,-21.74023 0.67183,-2.06768 13.49214,-15.49092 12.82031,-17.55859 -0.67183,-2.06768 -18.93253,-5.39203 -20.6914,-6.66992 -1.75888,-1.2779 -10.5642,-17.61915 -12.73829,-17.61915 z m -9.60937,20.83399 h 19.95117 c 1.60853,0 2.76901,0.29313 3.48047,0.88086 0.71146,0.5568 1.06641,1.42415 1.06641,2.59961 0,0.2784 -0.0299,0.57153 -0.0918,0.88086 -0.0309,0.30933 -0.0768,0.63434 -0.13867,0.97461 l -1.43945,6.82031 c -0.34027,1.60852 -0.95841,2.75306 -1.85547,3.43359 -0.89707,0.6496 -1.88805,1.03643 -2.97071,1.16016 0.98986,0.0619 1.82533,0.29318 2.50586,0.69531 0.68053,0.3712 1.02149,1.05311 1.02149,2.04297 v 0.50977 c 0,0.15466 -0.0319,0.32416 -0.0937,0.50976 l -2.27344,10.9043 h -7.05274 l 2.13477,-10.25391 c 0.0309,-0.15466 0.0469,-0.27829 0.0469,-0.37109 0.0309,-0.12373 0.0469,-0.23337 0.0469,-0.32617 0,-0.49493 -0.43465,-0.74219 -1.30078,-0.74219 H 291.4082 l -2.45898,11.69336 h -7.05274 l 4.8711,-22.9668 h 7.05273 l -1.29883,6.07813 h 9.6504 c 0.68052,0 1.12917,-0.10964 1.3457,-0.32618 0.24746,-0.21653 0.44885,-0.64923 0.60351,-1.29882 l 1.11329,-5.10352 c 0.0309,-0.15467 0.0469,-0.29424 0.0469,-0.41797 0.0309,-0.12373 0.0469,-0.23142 0.0469,-0.32422 0,-0.37119 -0.10963,-0.61845 -0.32617,-0.74218 -0.21653,-0.12374 -0.58741,-0.18555 -1.11328,-0.18555 h -16.65625 z"
         id="path861"
         transform="matrix(0.26458333,0,0,0.26458333,57.283203,-1.4536173)"
         inkscape:connector-curvature="0" />
    </g>
  </g>
</svg>
