<?xml version="1.0" encoding="UTF-8" standalone="no"?>
<!-- Created with Inkscape (http://www.inkscape.org/) -->

<svg
   xmlns:dc="http://purl.org/dc/elements/1.1/"
   xmlns:cc="http://creativecommons.org/ns#"
   xmlns:rdf="http://www.w3.org/1999/02/22-rdf-syntax-ns#"
   xmlns:svg="http://www.w3.org/2000/svg"
   xmlns="http://www.w3.org/2000/svg"
   xmlns:sodipodi="http://sodipodi.sourceforge.net/DTD/sodipodi-0.dtd"
   xmlns:inkscape="http://www.inkscape.org/namespaces/inkscape"
   width="87.449654mm"
   height="16.860727mm"
   viewBox="0 0 87.449654 16.860727"
   version="1.1"
   id="svg1007"
   inkscape:version="0.92.2 5c3e80d, 2017-08-06"
   sodipodi:docname="logo_v2.svg">
  <defs
     id="defs1001" />
  <sodipodi:namedview
     id="base"
     pagecolor="#ffffff"
     bordercolor="#666666"
     borderopacity="1.0"
     inkscape:pageopacity="0.0"
     inkscape:pageshadow="2"
     inkscape:zoom="2.8258641"
     inkscape:cx="163.68346"
     inkscape:cy="-18.919337"
     inkscape:document-units="mm"
     inkscape:current-layer="layer1"
     showgrid="false"
     fit-margin-top="0"
     fit-margin-left="0"
     fit-margin-right="0"
     fit-margin-bottom="0"
     inkscape:measure-start="0,0"
     inkscape:measure-end="0,0"
     inkscape:window-width="1440"
     inkscape:window-height="855"
     inkscape:window-x="0"
     inkscape:window-y="1"
     inkscape:window-maximized="1" />
  <metadata
     id="metadata1004">
    <rdf:RDF>
      <cc:Work
         rdf:about="">
        <dc:format>image/svg+xml</dc:format>
        <dc:type
           rdf:resource="http://purl.org/dc/dcmitype/StillImage" />
        <dc:title></dc:title>
      </cc:Work>
    </rdf:RDF>
  </metadata>
  <g
     inkscape:label="Layer 1"
     inkscape:groupmode="layer"
     id="layer1"
     transform="translate(52.796254,-25.498208)">
    <g
       transform="translate(-200.62989,53.449336)"
       style="display:inline"
       id="g988">
      <path
         inkscape:connector-curvature="0"
         id="path960"
         d="m 218.51332,-24.534003 c -0.63842,-0.0088 -1.18592,0.507234 -1.34217,1.104651 -0.13644,0.48565 -0.0301,1.089278 0.40432,1.392478 0.49996,0.345603 1.23841,0.260365 1.66278,-0.169706 0.46174,-0.440098 0.61194,-1.199078 0.30538,-1.766307 -0.16349,-0.303689 -0.47371,-0.520163 -0.82,-0.548614 -0.0697,-0.0087 -0.14005,-0.01249 -0.21031,-0.0125 z m -21.64806,0.833653 c -1.0332,-0.01713 -2.09503,0.424755 -2.72092,1.264348 -0.52669,0.693889 -0.70004,1.626828 -0.51941,2.472756 0.13131,0.585257 0.53441,1.075399 1.03243,1.394573 0.35255,0.253668 0.79966,0.406107 1.05427,0.776446 0.15982,0.251562 0.0625,0.641127 -0.23424,0.739339 -0.34375,0.140248 -0.73628,0.04852 -1.06734,-0.08483 -0.19852,-0.05525 -0.40255,-0.286708 -0.55691,-0.30822 -0.48313,0.64018 -0.96626,1.28036 -1.44939,1.92054 0.54686,0.476189 1.25724,0.729108 1.96643,0.838164 0.69773,0.103589 1.42207,0.07288 2.09183,-0.161206 0.99373,-0.309533 1.795,-1.188281 1.96471,-2.221533 0.10353,-0.622438 0.0894,-1.299969 -0.2346,-1.859743 -0.3076,-0.567058 -0.84,-0.96561 -1.39216,-1.27576 -0.19074,-0.136224 -0.44279,-0.235226 -0.54161,-0.462987 -0.0948,-0.246342 0.0238,-0.544189 0.2656,-0.653424 0.38845,-0.170865 0.84012,-0.02677 1.18068,0.189962 0.12364,0.03849 0.24091,0.303103 0.32508,0.106884 0.46564,-0.597728 0.93127,-1.195455 1.39691,-1.793183 -0.43123,-0.443664 -1.03861,-0.66564 -1.63085,-0.796133 -0.30613,-0.06057 -0.61884,-0.08599 -0.93051,-0.08599 z m -18.5247,0.195696 c -0.5027,2.892552 -1.00541,5.785104 -1.50811,8.677656 0.76822,0 1.53645,0 2.30467,0 0.25733,-1.695435 0.51467,-3.390869 0.772,-5.086304 0.0929,-0.02145 0.0349,0.113182 0.0547,0.167355 0.0554,1.63965 0.11074,3.279299 0.16611,4.918949 0.54739,0 1.09478,0 1.64217,0 0.67407,-1.695435 1.34813,-3.390869 2.0222,-5.086304 0.0799,-0.0063 -0.006,0.123825 0.003,0.176088 -0.31949,1.636738 -0.63899,3.273477 -0.95848,4.910216 0.83745,0 1.67489,0 2.51234,0 0.50251,-2.892552 1.00501,-5.785104 1.50752,-8.677656 -1.12351,0 -2.24702,0 -3.37053,0 -0.60065,1.560781 -1.20131,3.121562 -1.80196,4.682343 -0.0919,0.02109 -0.0366,-0.113438 -0.0577,-0.167198 -0.0827,-1.505048 -0.16543,-3.010097 -0.24815,-4.515145 -1.01319,0 -2.02638,0 -3.03957,0 z m 23.97128,1.87557 c -1.01676,-0.0051 -1.95763,0.614186 -2.50622,1.445772 -0.55295,0.818196 -0.7993,1.814012 -0.7907,2.794909 -0.005,0.786448 0.21002,1.62711 0.80316,2.178577 0.57735,0.546423 1.42421,0.69635 2.19113,0.602215 0.94878,-0.129144 1.80863,-0.750421 2.23924,-1.604222 -0.54759,-0.355485 -1.09518,-0.710969 -1.64277,-1.066454 -0.16065,0.249646 -0.3755,0.536121 -0.70303,0.538547 -0.24141,0.02524 -0.4913,-0.121189 -0.55308,-0.362637 -0.0331,-0.131441 -0.0812,-0.33547 -0.007,-0.433246 1.04611,0 2.09223,0 3.13834,0 0.1418,-0.586692 0.21812,-1.192716 0.20356,-1.796555 -0.0337,-0.582008 -0.18413,-1.194086 -0.60139,-1.624465 -0.44322,-0.494608 -1.1259,-0.68274 -1.77151,-0.672441 z m 25.03951,0 c -1.01675,-0.005 -1.95762,0.61419 -2.50621,1.445772 -0.55294,0.818201 -0.7993,1.814012 -0.79069,2.794909 -0.005,0.786449 0.21001,1.627113 0.80315,2.178577 0.57735,0.54642 1.42421,0.696352 2.19114,0.602215 0.94877,-0.12915 1.80863,-0.750421 2.23924,-1.604222 -0.54759,-0.355485 -1.09518,-0.710969 -1.64277,-1.066454 -0.16066,0.249638 -0.37551,0.536119 -0.70303,0.538547 -0.24141,0.02525 -0.4913,-0.121191 -0.55308,-0.362637 -0.0331,-0.131441 -0.0812,-0.33547 -0.007,-0.433246 1.04611,0 2.09223,0 3.13834,0 0.1418,-0.586692 0.21812,-1.192716 0.20356,-1.796555 -0.0337,-0.58201 -0.18414,-1.194088 -0.60141,-1.624465 -0.44321,-0.494617 -1.1259,-0.682738 -1.77151,-0.672441 z m -17.74489,0.02454 c -0.40196,-0.01216 -0.78437,0.200198 -1.01946,0.520643 -0.15373,0.192126 -0.27558,0.407901 -0.37735,0.631391 -0.085,-0.06232 0.0298,-0.30516 0.009,-0.430748 -0.0113,-0.154219 0.0811,-0.405305 0.004,-0.501053 -0.7399,0 -1.4798,0 -2.2197,0 -0.11351,0.92126 -0.29935,1.831494 -0.45482,2.746231 -0.22427,1.270361 -0.44854,2.540723 -0.67281,3.811084 0.8171,0 1.63419,0 2.45129,0 0.19471,-1.098954 0.38249,-2.199249 0.58157,-3.297355 0.099,-0.440204 0.39014,-0.900074 0.85998,-0.996971 0.24137,-0.04207 0.49428,-0.01608 0.72786,0.05364 0.18393,-0.825275 0.36786,-1.65055 0.55179,-2.475825 -0.14245,-0.03967 -0.29401,-0.05778 -0.44157,-0.06104 z m 13.29236,0.02454 c -0.70284,-0.01467 -1.38636,0.280493 -1.8981,0.754418 -0.8761,0.812686 -1.33228,2.004743 -1.39312,3.183941 -0.0341,0.798557 0.0951,1.660175 0.61848,2.294341 0.33903,0.414391 0.85425,0.658647 1.38439,0.700142 0.66096,0.06338 1.3714,-0.04105 1.91314,-0.449138 -0.19191,-0.637359 -0.38381,-1.274717 -0.57572,-1.912076 -0.24312,0.158435 -0.62388,0.21421 -0.82897,-0.03445 -0.23724,-0.310094 -0.2028,-0.733798 -0.15414,-1.099315 0.0786,-0.416282 0.24248,-0.863091 0.60549,-1.112573 0.22967,-0.139275 0.56725,-0.108172 0.74504,0.101469 0.40037,-0.637359 0.80073,-1.274718 1.2011,-1.912077 -0.34105,-0.335461 -0.83146,-0.465151 -1.29627,-0.503127 -0.10688,-0.0081 -0.21428,-0.01153 -0.32132,-0.01155 z m 10.22767,0 c -0.49941,0.01047 -1.00395,0.111919 -1.45627,0.327261 -0.64455,0.306924 -1.17081,0.912973 -1.26813,1.634239 -0.0736,0.491915 -0.0503,1.041586 0.27136,1.447701 0.35852,0.480853 0.94896,0.671633 1.45165,0.955887 0.19997,0.08702 0.40821,0.32903 0.24523,0.542081 -0.24028,0.21936 -0.60519,0.145464 -0.88404,0.04865 -0.2401,-0.07511 -0.45734,-0.259858 -0.63498,-0.399466 -0.41819,0.511588 -0.83639,1.023176 -1.25458,1.534764 0.71165,0.644059 1.70818,0.897764 2.65121,0.850512 0.66659,-0.06298 1.3605,-0.27356 1.82907,-0.776809 0.37471,-0.393574 0.59007,-0.925429 0.60181,-1.468377 0.05,-0.506016 -0.13527,-1.02458 -0.49941,-1.380119 -0.34559,-0.350667 -0.79438,-0.570506 -1.23372,-0.77943 -0.20777,-0.06887 -0.41695,-0.278556 -0.28511,-0.508535 0.14808,-0.204399 0.44395,-0.194961 0.66847,-0.154414 0.26997,0.0611 0.51903,0.202289 0.7286,0.381051 0.40855,-0.518864 0.81709,-1.037728 1.22564,-1.556592 -0.46811,-0.387141 -1.07021,-0.577046 -1.66299,-0.666184 -0.16363,-0.02156 -0.32893,-0.03224 -0.49381,-0.03222 z m -46.07476,0.195697 c 0.24118,2.185772 0.48236,4.371543 0.72354,6.557315 -0.11441,0.273147 -0.24531,0.59664 -0.55302,0.692498 -0.25383,0.06313 -0.52862,0.02079 -0.77086,-0.06711 -0.14303,0.727128 -0.28606,1.454255 -0.42909,2.181383 0.70662,0.16271 1.46859,0.210501 2.16326,-0.03106 0.66623,-0.233326 1.21254,-0.728325 1.5858,-1.31945 0.54468,-0.868634 0.92352,-1.824042 1.35209,-2.751852 0.7918,-1.753907 1.5836,-3.507814 2.3754,-5.261721 -0.83346,0 -1.66691,0 -2.50037,0 -0.47398,1.364686 -0.94796,2.729372 -1.42194,4.094058 -0.0779,0.0059 -0.0175,-0.126409 -0.0365,-0.179411 0,-1.304884 0,-2.609769 0,-3.914653 -0.82944,1e-6 -1.65887,1e-6 -2.48831,3e-6 z m 22.99639,0 c 0.12667,2.185772 0.25335,4.371543 0.38002,6.557315 1.009,0 2.018,0 3.027,0 0.96831,-2.185772 1.93661,-4.371543 2.90492,-6.557315 -0.84981,0 -1.69962,0 -2.54943,0 -0.44525,1.33596 -0.89051,2.671919 -1.33576,4.007879 -0.0936,0.02146 -0.0311,-0.113246 -0.0491,-0.16745 0,-1.280143 0,-2.560286 0,-3.840429 -0.79255,0 -1.5851,0 -2.37765,0 z m 6.83499,0 c -0.37583,2.185772 -0.75166,4.371543 -1.12749,6.557315 0.81291,0 1.62581,0 2.43872,0 0.38002,-2.185772 0.76004,-4.371543 1.14006,-6.557315 -0.8171,0 -1.63419,0 -2.45129,0 z m -14.64488,1.581128 c 0.24183,-0.02053 0.36629,0.230525 0.38249,0.436536 -0.0158,0.124505 0.0774,0.428954 -0.0868,0.433623 -0.32319,0 -0.64637,0 -0.96956,0 0.0558,-0.337864 0.20608,-0.735934 0.55971,-0.854801 0.0371,-0.01022 0.0757,-0.01539 0.11418,-0.01536 z m 25.03951,0 c 0.24183,-0.02054 0.36631,0.230516 0.38251,0.436536 -0.0158,0.124505 0.0774,0.428954 -0.0868,0.433623 -0.32319,0 -0.64637,0 -0.96956,0 0.0558,-0.337864 0.20607,-0.735942 0.5597,-0.854801 0.0371,-0.01022 0.0756,-0.01539 0.11417,-0.01536 z"
         style="font-style:italic;font-variant:normal;font-weight:900;font-stretch:condensed;font-size:medium;line-height:1.25;font-family:'Avenir Next Condensed';-inkscape-font-specification:'Avenir Next Condensed, Heavy Italic Condensed';letter-spacing:0px;word-spacing:0px;fill:#ffe32d;fill-opacity:1;stroke:none;stroke-width:0.30641097" />
      <path
         inkscape:connector-curvature="0"
         id="path962"
         transform="matrix(0.26458333,0,0,0.26458333,57.283203,-21.231125)"
         d="m 401.50781,-25.398438 c -2.1741,0 -10.9794,16.3412375 -12.73828,17.6191411 -0.45484,0.330462 -2.04462,0.8045138 -4.11719,1.3515625 -0.2414,-0.1703551 -0.48908,-0.3329474 -0.75195,-0.4726562 -2.09892,-1.1498794 -4.40343,-1.9369217 -6.89258,-2.3652344 a 1.6467632,1.9320099 0 0 0 -0.0273,-0.00586 c -1.73665,-0.2641152 -3.39809,-0.4135959 -4.99024,-0.453125 -0.002,-9.38e-5 -0.002,9.52e-5 -0.004,0 -1.5457,-0.073961 -2.73311,-0.1132812 -3.58985,-0.1132812 h -0.0937 -0.0488 c -2.79249,0 -5.52642,0.3036484 -8.19922,0.9140625 h -0.002 c -2.66789,0.5727367 -5.12912,1.3982179 -7.3789,2.484375 h -0.002 c -0.001,7.147e-4 -0.005,0.00308 -0.006,0.00391 -2.27592,1.0842653 -4.25756,2.3793636 -5.9336,3.9042969 -1.69921,1.54601772 -2.97996,3.31343094 -3.74023,5.3203125 a 1.6467632,1.9320099 0 0 0 -0.01,0.025391 c -0.21969,0.6011579 -0.40324,1.2202839 -0.54883,1.8613281 a 1.6467632,1.9320099 0 0 0 -0.0195,0.09375 c -0.11855,0.6483053 -0.17578,1.301346 -0.17578,1.9511719 0,1.7616844 0.5081,3.4618663 1.45508,4.8144533 a 1.6467632,1.9320099 0 0 0 0.043,0.05664 c 1.07764,1.422344 2.67332,2.156927 4.39844,2.248047 10e-4,8.3e-5 0.003,-8e-5 0.004,0 1.43624,0.08605 2.79899,-0.231575 3.92383,-1.076172 a 1.6467632,1.9320099 0 0 0 0.0391,-0.0293 c 0.1035,-0.0826 0.18349,-0.221499 0.28516,-0.308594 -0.4809,1.645029 -0.96253,3.278773 -1.44336,4.949219 -0.20232,0.652736 -0.45816,1.224144 -0.77344,1.736328 a 1.6467632,1.9320099 0 0 0 -0.0117,0.01758 c -0.31891,0.530054 -0.69466,1.052065 -1.13476,1.56836 -0.0946,0.110817 -0.18851,0.222702 -0.28321,0.333984 -0.0942,0.110362 -0.18693,0.221202 -0.28125,0.332031 a 1.6467632,1.9320099 0 0 0 0.58008,3.169922 1.6467632,1.9320099 0 0 0 0.0117,0.0059 1.6467632,1.9320099 0 0 0 0.33399,0.185547 c 0.0253,0.0097 0.0159,0.0033 0.0137,0.002 0.0765,0.05561 0.14292,0.111761 0.24218,0.169922 a 1.6467632,1.9320099 0 0 0 0.15235,0.07813 1.6467632,1.9320099 0 0 0 0.002,0 1.6467632,1.9320099 0 0 0 0.0723,0.05078 c 0.80117,0.516995 1.70423,0.88316 2.70508,1.134765 a 1.6467632,1.9320099 0 0 0 0.0117,0.0039 c 1.02278,0.248267 2.07544,0.371094 3.1543,0.371094 h 0.51953 c 0.22792,0 0.46131,-0.02874 0.69531,-0.06641 1.79853,-0.127224 3.51288,-0.596445 5.09961,-1.423828 a 1.6467632,1.9320099 0 0 0 0.0176,-0.0078 c 1.73182,-0.927561 3.07663,-2.436346 3.64649,-4.390625 0.2187,-0.697439 0.42784,-1.37943 0.61914,-2.052734 a 1.6467632,1.9320099 0 0 0 0.008,-0.03125 c 0.18078,-0.671775 0.37584,-1.342838 0.58594,-2.011719 a 1.6467632,1.9320099 0 0 0 0.0117,-0.04297 c 0.40656,-1.394345 0.81287,-2.769671 1.21875,-4.125 a 1.6467632,1.9320099 0 0 0 0.004,-0.01562 c 0.26048,-0.893274 0.52204,-1.787573 0.78321,-2.6816415 0.0127,0.00483 0.0571,0.00884 0.0684,0.013672 a 1.6467632,1.9320099 0 0 0 0.10157,0.037109 c 0.0563,0.018861 0.0535,0.018799 0.0684,0.025391 0.0155,0.030719 0.0312,0.057972 0.0469,0.140625 a 1.6467632,1.9320099 0 0 0 0.0664,0.2558595 c 0.009,0.0286 0.0371,0.147177 0.0371,0.371094 0,0.239112 -0.0217,0.538279 -0.0723,0.894531 a 1.6467632,1.9320099 0 0 0 -0.0156,0.142578 c -0.0228,0.294112 -0.0689,0.622943 -0.14453,0.978516 a 1.6467632,1.9320099 0 0 0 -0.041,0.304687 1.6467632,1.9320099 0 0 0 -0.0508,0.347657 1.6467632,1.9320099 0 0 0 -0.0156,0.07226 c -0.0942,0.515391 -0.18917,1.031221 -0.2832,1.546875 a 1.6467632,1.9320099 0 0 0 -0.0195,0.132813 c -0.0714,0.585422 -0.11133,1.130445 -0.11133,1.652343 0,3.254166 1.14119,6.11329 3.29102,7.748047 1.95064,1.483304 4.18167,2.242188 6.54297,2.242188 0.71933,0 1.42774,-0.06847 2.12695,-0.189453 -0.36156,5.431836 -0.6502,11.093406 0.30469,11.787109 1.75887,1.2779 18.48805,-6.765625 20.66211,-6.765625 2.17409,0 18.90127,8.043525 20.66015,6.765625 0.94049,-0.683301 0.67031,-6.198397 0.31641,-11.556641 0.43393,-0.121354 0.85862,-0.262169 1.26367,-0.443359 1.2583,-0.549036 2.38449,-1.306809 3.33398,-2.287109 a 1.6467632,1.9320099 0 0 0 0.004,-0.0059 c 0.31176,-0.325124 0.52045,-0.712873 0.79492,-1.0625 1.28521,1.411126 2.79055,2.54919 4.55664,3.263672 a 1.6467632,1.9320099 0 0 0 0.0391,0.01563 c 0.74449,0.27792 1.50625,0.494447 2.2871,0.65625 0.75088,0.190008 1.51826,0.296911 2.29493,0.345703 0.25895,0.05382 0.51281,0.08398 0.75976,0.08398 h 0.56641 c 1.28904,0 2.55171,-0.141168 3.78516,-0.421875 1.2844,-0.285095 2.51217,-0.734168 3.66992,-1.351563 a 1.6467632,1.9320099 0 0 0 0.0215,-0.01367 c 1.91929,-1.064444 3.50257,-2.491045 4.65625,-4.28125 1.03816,-1.610874 1.96766,-3.385753 2.79297,-5.322265 a 1.6467632,1.9320099 0 0 0 -0.7832,-2.619141 l -2.35157,-1.269531 a 1.6467632,1.9320099 0 0 0 -1.09375,-0.115234 c 0.15748,-0.681874 0.42266,-1.328268 0.4004,-2.0566414 -0.0455,-1.724105 -0.7449,-3.3855272 -1.90235,-4.4355469 -0.9276,-0.8667082 -1.96589,-1.5024749 -3.07812,-1.8691406 -0.0769,-0.028108 -0.16008,-0.025286 -0.24024,-0.044922 -0.0762,-0.035628 -0.15752,-0.082834 -0.23047,-0.1113281 a 1.6467632,1.9320099 0 0 0 -0.0566,-0.021484 C 443.33092,3.0428396 442.65054,2.8963836 441.93555,2.8125 441.25196,2.732302 440.55677,2.6914062 439.8457,2.6914062 c -0.47556,0 -0.96962,0.020903 -1.47656,0.060547 a 1.6467632,1.9320099 0 0 0 -0.006,0 c -0.47269,0.039616 -0.96311,0.095047 -1.4668,0.1738281 -1.98006,0.3035658 -3.86473,1.0069957 -5.65429,2.0214844 2.24365,-2.8291837 3.95327,-5.26870594 3.69726,-6.0566406 -0.2063,-0.6349266 -2.15322,-1.3897403 -4.68945,-2.1660156 a 1.6467632,1.9320099 0 0 0 -1.82422,-1.578125 c -0.50311,0.073782 -1.02313,0.1649811 -1.55469,0.2734375 -0.28354,0.039156 -0.55129,0.079849 -0.82617,0.1191406 -5.18026,-1.3541222 -10.8529,-2.6325289 -11.79687,-3.3183594 -1.75888,-1.2779036 -10.56419,-17.6191412 -12.73828,-17.6191412 z m -33.2539,17.4941411 c 0.45577,-0.00113 0.91164,0.00668 1.36718,0.019531 1.86282,0.074268 3.73073,0.099853 5.58399,0.3203125 2.95755,0.2970897 5.8801,1.1569458 8.44726,2.671875 1.15378,0.6987023 2.03383,1.8540144 2.32032,3.1796875 0.37296,1.7337373 0.11927,3.6552144 -0.91602,5.1230468 -0.6771,0.9274961 -1.57506,1.6731198 -2.50781,2.3320313 -1.31573,0.923811 -2.85602,1.4653115 -4.41602,1.8066406 0.57132,0.4301783 1.06774,0.9539423 1.48828,1.53125 0.85191,1.1153502 1.03926,2.5395302 1.41797,3.8515632 0.31004,1.255925 0.67861,2.500233 1.17774,3.695312 0.26105,0.64574 0.69134,1.388077 1.44336,1.507813 0.47837,0.03819 0.92086,-0.259937 1.26367,-0.564454 0.77166,-0.767818 1.36185,-1.712429 1.77929,-2.714843 0.13527,-0.916241 0.37854,-1.81815 0.72852,-2.675781 0.97157,-2.2899107 2.57804,-4.3514036 4.69922,-5.6796883 1.18704,-0.7252006 2.47575,-1.3108812 3.83789,-1.6132812 0.54319,-0.134589 1.10494,-0.1595293 1.6543,-0.2421876 1.06889,-0.078614 2.15934,0.043928 3.17773,0.3847657 1.09822,0.3441146 2.12353,0.9297725 2.93945,1.7460937 0.15682,-0.551588 0.31386,-1.1027088 0.47071,-1.6542968 h 9.08203 c 0.18935,0.093917 -0.13893,0.5772755 -0.14649,0.8164062 -0.39934,1.2489562 -0.72566,2.5184841 -1.11132,3.7714844 -0.70602,2.2759299 -1.37492,4.5629029 -2.00391,6.8613279 -0.10356,0.39018 -0.22274,0.77435 -0.31836,1.160157 -0.0779,0.337281 -0.15952,0.675154 -0.14062,1.023437 -0.0451,0.366905 0.17855,0.6598 0.51757,0.771485 0.31454,-0.05805 0.66229,-0.04946 0.93555,-0.244141 0.54758,-0.280902 0.9995,-0.710293 1.40039,-1.171875 0.68251,-0.803138 1.28395,-1.680911 1.75,-2.626953 0.37879,-0.642078 0.56304,-1.366003 0.76563,-2.076172 0.28531,-0.953439 0.55202,-1.912588 0.79882,-2.876953 0.22855,-0.9542215 0.55015,-1.8817749 0.84571,-2.8164067 h -2.02344 c 0.26646,-0.883079 0.53237,-1.7653584 0.79883,-2.6484375 h 2.02344 c 0.19948,-0.7083553 0.41668,-1.4128716 0.62304,-2.1191406 0.46424,-1.4376718 0.90579,-2.88104149 1.30664,-4.3378906 0.69362,-0.1232882 1.38964,-0.2387425 2.08594,-0.3457031 1.55709,-0.2107692 3.09242,-0.5502576 4.64649,-0.7792969 0.8519,-0.097157 1.68771,-0.2880531 2.53515,-0.4140625 0.0537,0.1827137 -0.15607,0.5945568 -0.20898,0.8632812 -0.40566,1.20877231 -0.72298,2.44311549 -1.08203,3.6660156 -0.35732,1.1495207 -0.68901,2.3076347 -1.01368,3.4667969 h 2.53907 c -0.28256,0.8830791 -0.56495,1.7653585 -0.84766,2.6484375 h -2.49414 c -0.43223,1.5076309 -0.90582,3.0032297 -1.30078,4.5214847 -0.4029,1.314346 -0.75484,2.64355 -1.1543,3.958984 -0.2479,0.855549 -0.61894,1.715688 -0.54297,2.625 -0.0237,0.486932 0.47864,0.764214 0.91211,0.628907 0.60522,-0.163522 1.12392,-0.539901 1.58203,-0.955078 0.74963,-0.658897 1.33964,-1.492474 1.78907,-2.38086 -0.0775,-0.635255 -0.0316,-1.277519 0.0293,-1.912109 0.21755,-1.470074 0.63695,-2.938708 1.42774,-4.2089849 0.78209,-1.2854022 1.93904,-2.3040111 3.23047,-3.0585938 1.99751,-1.2330973 4.27892,-1.9902008 6.61523,-2.2128906 1.57028,-0.1512189 3.17547,-0.1438 4.72266,0.1914062 0.35478,0.071962 0.69909,0.2084897 1.0332,0.3242188 1.12452,0.2865184 2.11754,0.9661862 2.93555,1.7753906 0.81543,0.813241 1.12764,1.9991846 1.08984,3.1250007 0.01,1.478007 -0.56127,2.973985 -1.66406,3.978515 -1.15688,1.020235 -2.50962,1.810329 -3.9336,2.396485 -2.07526,0.813101 -4.31095,1.27288 -6.54492,1.193359 0.12374,1.055097 0.44555,2.129306 1.14453,2.951172 0.777,0.896077 2.0142,1.243097 3.16797,1.1875 1.86289,-0.02032 3.73414,-0.63528 5.17188,-1.835938 1.97129,-1.673416 3.37638,-3.9351 4.30078,-6.332031 0.7841,0.423122 1.56941,0.846409 2.35351,1.269531 -0.6314,1.481322 -1.35464,2.92598 -2.1875,4.304688 -0.74577,1.301185 -1.71698,2.480917 -2.91796,3.386719 -2.08955,1.635552 -4.72669,2.440516 -7.35157,2.601562 -0.65193,0.02754 -1.30856,0.05802 -1.95898,0 -0.75882,-0.0717 -1.52507,-0.141468 -2.26563,-0.33789 -1.44699,-0.292585 -2.86156,-0.798066 -4.09765,-1.617188 -1.29067,-0.852862 -2.4598,-1.952941 -3.21094,-3.318359 -0.91393,1.538241 -2.07328,2.99413 -3.64844,3.894531 -1.23711,0.742707 -2.65656,1.164351 -4.09765,1.226562 -1.18345,0.0893 -2.39232,-0.08826 -3.47266,-0.591796 -1.35632,-0.63261 -2.16888,-2.019414 -2.56055,-3.41211 -0.5173,0.716183 -1.04602,1.437414 -1.7207,2.015625 -1.48713,1.319188 -3.48676,1.916068 -5.44531,1.992188 -1.10801,0.0776 -2.23957,-0.07731 -3.25782,-0.533203 -1.18431,-0.464848 -2.01413,-1.545517 -2.44726,-2.710938 -1.57519,1.713237 -3.71435,2.976801 -6.05078,3.240234 -0.53254,0.106167 -1.08282,0.0809 -1.6211,0.02734 -1.30832,-0.160441 -2.62289,-0.581353 -3.66796,-1.40625 -1.2742,-1.03389 -2.19657,-2.464874 -2.75586,-3.998047 -0.88203,1.440779 -2.05594,2.736639 -3.52149,3.597657 -1.52345,0.908794 -3.29887,1.344066 -5.06641,1.353515 -1.98062,0.0377 -3.95508,-0.607823 -5.54687,-1.783203 -1.24309,-0.85282 -2.08682,-2.204007 -2.43945,-3.658203 -0.35641,-1.476718 -0.40456,-3.035848 -0.10938,-4.527344 0.12851,-0.667139 0.23717,-1.335315 0.34375,-2.003906 0.12435,-0.877561 0.27683,-1.767649 0.19141,-2.65625 -0.11365,-0.6443607 -0.24645,-1.3609102 -0.76367,-1.8144535 -0.67677,-0.4945777 -1.54416,-0.6175243 -2.36133,-0.6660157 -0.52237,1.7823156 -1.03609,3.5663172 -1.56836,5.3457032 -0.54924,1.883422 -1.12563,3.760536 -1.65234,5.650391 -0.31707,0.969539 -0.50629,2.006024 -1.08985,2.863281 -0.87613,1.336717 -2.36299,2.100437 -3.83984,2.589844 -1.1034,0.372684 -2.26561,0.526817 -3.42188,0.605469 -1.85779,0.03277 -3.78977,-0.209546 -5.41992,-1.158204 -0.40278,-0.247184 -0.7935,-0.506869 -1.21484,-0.71875 1.09897,-1.242935 2.13062,-2.591345 2.69336,-4.169921 0.39333,-1.173823 0.69638,-2.377482 1.05468,-3.5625 1.24766,-4.345996 2.58995,-8.6637558 3.81055,-13.0175788 0.47399,-1.83363402 1.2004,-3.6034611 2.19922,-5.2148437 0.26268,-0.3050079 -0.0743,-0.1219253 -0.26367,-0.054688 -1.50871,0.5379515 -2.91451,1.348618 -4.15235,2.3632813 -1.2099,1.02072945 -2.39775,2.1431716 -3.11718,3.5761719 -0.53318,1.0915691 -0.88116,2.3120558 -0.79688,3.5351562 0.0372,0.6987818 0.49255,1.2792603 1.01953,1.6992188 0.40328,0.3481738 0.89023,0.56794 1.31641,0.8828125 -0.55057,0.7630979 -1.17279,1.4784828 -1.88281,2.0976558 -0.79813,0.765328 -1.92667,1.095255 -3.01563,1.058594 -1.19694,-4.39e-4 -2.44564,-0.39019 -3.26172,-1.302734 -0.96385,-1.0982553 -1.37386,-2.599281 -1.33984,-4.0410158 0.005,-1.2534425 0.36403,-2.4780039 0.86523,-3.6171875 1.07071,-2.35525042 3.00735,-4.1838608 5.10352,-5.6367188 2.93129,-2.0009121 6.27416,-3.3520774 9.71875,-4.1699218 2.83789,-0.6943144 5.7569,-1.0649556 8.67969,-1.0566407 z m 6.96289,3.3085938 c -1.23753,-0.021294 -2.5044,0.4296143 -3.30664,1.4023437 -0.59895,0.7439093 -1.02231,1.6106214 -1.43946,2.46484378 -0.71905,1.51297889 -1.17499,3.13021142 -1.60937,4.74218752 -0.0272,0.2140762 -0.19311,0.3949124 -0.18555,0.6113281 1.52893,0.00174 3.06895,0.018801 4.58008,-0.2441406 1.34037,-0.3227188 2.49912,-1.2147247 3.31641,-2.3046875 0.76728,-1.08162522 1.36878,-2.32971455 1.48632,-3.6660157 0.0609,-0.774497 0.0628,-1.6730035 -0.51953,-2.2636718 -0.64637,-0.5216353 -1.5018,-0.7372741 -2.32226,-0.7421875 z m -19.49024,5.57421872 c -0.56019,1.99175268 -1.15187,3.98261938 -1.74414,5.97460938 -0.21597,-0.145383 -0.43095,-0.2939659 -0.6543,-0.40625 l 0.16993,0.099609 c -0.17971,-0.1204764 -0.34031,-0.2409678 -0.49024,-0.3574219 -0.16702,-0.138612 -0.25696,-0.2503502 -0.32226,-0.3417969 0.001,0.008 -0.004,0.030116 -0.004,-0.109375 0,-0.1056014 0.009,-0.2574488 0.0312,-0.4453125 a 1.6467632,1.9320099 0 0 0 0.002,-0.033203 c 0.0155,-0.1453333 0.0516,-0.3367552 0.11719,-0.5683594 a 1.6467632,1.9320099 0 0 0 0.0156,-0.058594 c 0.24373,-0.9617936 0.74768,-1.867567 1.65625,-2.78125 a 1.6467632,1.9320099 0 0 0 0.0215,-0.019531 c 0.38463,-0.3996763 0.80482,-0.6174166 1.20117,-0.95312498 z m 85.85547,5.96289058 c -0.68576,-0.02705 -1.37404,0.1656832 -1.94531,0.546875 -0.92122,0.6180095 -1.52998,1.5834075 -2.08984,2.5175778 -0.79038,1.378455 -1.25893,2.917369 -1.50196,4.482422 0.25202,0.13629 0.85748,-0.07838 1.24024,-0.109375 1.4694,-0.315798 2.89538,-0.916703 4.06836,-1.86914 0.77223,-0.573355 1.39237,-1.370453 1.65429,-2.304688 0.19843,-0.7409611 0.32431,-1.5443407 0.11719,-2.2968749 -0.18032,-0.6682658 -0.91568,-0.9380724 -1.54297,-0.9667969 z m -40.09961,1.1035157 c -0.75413,-0.00398 -1.41162,0.4407384 -1.94922,0.9277343 -1.26089,1.2060398 -2.14236,2.7368078 -2.96093,4.2617188 -0.46031,0.843749 -0.80777,1.741808 -1.09766,2.65625 -0.16237,0.664668 -0.28884,1.339079 -0.44531,2.005859 -0.0571,0.40416 -0.14757,0.798947 -0.21485,1.201172 -0.0227,0.449069 -0.0241,0.902759 0.0137,1.351563 0.07,0.494608 0.17022,1.145916 0.70899,1.339843 0.78867,0.1846 1.6217,-0.163811 2.20703,-0.689453 0.64554,-0.614082 1.148,-1.36215 1.62305,-2.111328 0.64327,-1.083991 1.19158,-2.227939 1.60937,-3.417969 0.56081,-1.424553 0.99861,-2.898773 1.30664,-4.398437 0.14174,-0.847102 0.31006,-1.740802 0.0625,-2.5839844 C 402.2703,8.18909 401.85244,8.0146857 401.48242,8.0449219 Z M 441.47656,8.90625 c -0.0627,0.7809949 -0.20357,1.296605 -0.75976,1.765625 a 1.6467632,1.9320099 0 0 0 -0.0215,0.01563 c -0.60789,0.529126 -1.31235,0.835942 -2.02343,1.138672 0.32154,-0.693848 0.61196,-1.401048 1.10742,-2.0253908 0.5645,-0.7113362 1.01939,-0.9000879 1.69726,-0.8945312 z m -16.37304,6.132812 c -0.006,0.159311 -0.029,0.317308 -0.0293,0.476563 -0.0563,0.09579 -0.13197,0.182593 -0.19336,0.275391 0.0278,-0.09612 0.0587,-0.192932 0.0859,-0.289063 a 1.6467632,1.9320099 0 0 0 0.008,-0.02734 c 0.0393,-0.145054 0.0883,-0.290256 0.12891,-0.435547 z m 20.86718,1.414063 c -0.41119,0.550641 -0.80985,1.115251 -1.29297,1.582031 -1.29338,1.249632 -2.8377,1.875 -4.88281,1.875 -0.65333,0 -0.9721,-0.229678 -1.31836,-0.449218 0.91561,-0.125555 1.84591,-0.313072 2.80078,-0.601563 1.69064,-0.495867 3.22948,-1.375068 4.69336,-2.40625 z"
         style="fill:#ffe32d;fill-opacity:1;fill-rule:nonzero;stroke:none;stroke-width:4.14614153;stroke-linecap:round;stroke-linejoin:round;stroke-miterlimit:4;stroke-dasharray:none;stroke-opacity:1" />
    </g>
  </g>
</svg>
